<?xml version="1.0" encoding="utf-8"?>
<!-- Generator: Adobe Illustrator 15.0.0, SVG Export Plug-In . SVG Version: 6.00 Build 0)  -->
<!DOCTYPE svg PUBLIC "-//W3C//DTD SVG 1.1//EN" "http://www.w3.org/Graphics/SVG/1.1/DTD/svg11.dtd">
<svg version="1.1" xmlns="http://www.w3.org/2000/svg" xmlns:xlink="http://www.w3.org/1999/xlink" x="0px" y="0px" width="325px"
	 height="35px" viewBox="0 0 325 35" enable-background="new 0 0 325 35" xml:space="preserve">
<g id="Layer_2" display="none">
	<rect display="inline" stroke="#FFFFFF" stroke-miterlimit="10" width="325" height="35"/>
</g>
<g id="Layer_1">
	<g id="Layer_1_1_">
		<g>
			<path fill="#FFFFFF" stroke="#FFFFFF" stroke-miterlimit="10" d="M5.586,6.715h4.68c6.93,0,12.689,3.66,12.689,11.189
				c0,7.71-5.64,11.43-12.779,11.43h-4.59V6.715z M8.406,26.754h0.99c5.76,0,10.739-2.16,10.739-8.729
				c0-6.601-4.979-8.729-10.739-8.729h-0.99V26.754z"/>
			<path fill="#FFFFFF" d="M43.266,17.422c2.88,0,5.729-0.538,5.729-4.138c0-3.54-3.36-4.05-6.149-4.05h-0.75v8.189v2.339v9.57
				h-2.82V6.715h3.419c2.01,0,4.17,0.03,5.97,1.05c1.89,1.11,2.97,3.24,2.97,5.4c0,3.24-2.16,5.94-5.43,6.33l7.14,9.84h-3.42
				l-6.66-9.569 M43.266,19.764L43.266,19.764v-2.341"/>
			<path fill="#FFFFFF" d="M71.886,18.205v8.549h9.33v2.58h-12.15V6.715h12.149v2.58h-9.33v6.33v2.58H71.886z"/>
			<path fill="#FFFFFF" d="M106.596,11.935l7.77,17.399h3.03l-10.8-23.579l-10.8,23.579h3.03l3.75-8.25L106.596,11.935
				L106.596,11.935"/>
			<path fill="#FFFFFF" d="M136.626,14.395h-0.061l-2.64,14.939h-2.91l4.62-23.579l7.77,17.819l7.77-17.819l4.62,23.579h-2.91
				l-2.64-14.939h-0.06l-6.78,15.419L136.626,14.395z"/>
			<path fill="#FFFFFF" stroke="#FFFFFF" stroke-miterlimit="10" d="M197.195,23.664l-2.58,5.67h-3.03l10.8-23.579l10.801,23.579
				h-3.031l-2.579-5.67H197.195z M202.385,11.935l-4.02,9.149h8.039L202.385,11.935z"/>
			<path fill="#FFFFFF" d="M231.395,26.754h6.871v2.58h-9.689V6.715h2.818V26.754z"/>
			<path fill="#FFFFFF" d="M256.354,29.334h-2.818V6.715h2.818V29.334z"/>
			<path fill="#FFFFFF" d="M281.555,23.454l6.721-16.739h3.09l-9.811,23.819l-9.84-23.819h3.09L281.555,23.454z"/>
			<path fill="#FFFFFF" d="M309.604,18.205v8.549h9.33v2.58h-12.148V6.715h12.148v2.58h-9.33v6.33V18.205z"/>
		</g>
	</g>
	<g id="Layer_3">
	</g>
</g>
</svg>
